name D:\school\WTK\thesis\model\3dpredictsim\Results\MidTarsalJoint\Fal_s1_bCst_PF_Natali2010_ls150_MT_k100_MTP_T5_ig24.mot
datacolumns 128
datarows 4
range 0.00000000 0.03529854
endheader
time	pelvis_tilt	pelvis_list	pelvis_rotation	pelvis_tx	pelvis_ty	pelvis_tz	hip_flexion_l	hip_adduction_l	hip_rotation_l	hip_flexion_r	hip_adduction_r	hip_rotation_r	knee_angle_l	knee_angle_r	ankle_angle_l	ankle_angle_r	subtalar_angle_l	subtalar_angle_r	tmt_angle_l	tmt_angle_r	mtp_angle_l	mtp_angle_r	lumbar_extension	lumbar_bending	lumbar_rotation	arm_flex_l	arm_add_l	arm_rot_l	arm_flex_r	arm_add_r	arm_rot_r	elbow_flex_l	elbow_flex_r	pro_sup_l	pro_sup_r	glut_med1_l/activation	glut_med2_l/activation	glut_med3_l/activation	glut_min1_l/activation	glut_min2_l/activation	glut_min3_l/activation	semimem_l/activation	semiten_l/activation	bifemlh_l/activation	bifemsh_l/activation	sar_l/activation	add_long_l/activation	add_brev_l/activation	add_mag1_l/activation	add_mag2_l/activation	add_mag3_l/activation	tfl_l/activation	pect_l/activation	grac_l/activation	glut_max1_l/activation	glut_max2_l/activation	glut_max3_l/activation	iliacus_l/activation	psoas_l/activation	quad_fem_l/activation	gem_l/activation	peri_l/activation	rect_fem_l/activation	vas_med_l/activation	vas_int_l/activation	vas_lat_l/activation	med_gas_l/activation	lat_gas_l/activation	soleus_l/activation	tib_post_l/activation	flex_dig_l/activation	flex_hal_l/activation	tib_ant_l/activation	per_brev_l/activation	per_long_l/activation	per_tert_l/activation	ext_dig_l/activation	ext_hal_l/activation	ercspn_l/activation	intobl_l/activation	extobl_l/activation	glut_med1_r/activation	glut_med2_r/activation	glut_med3_r/activation	glut_min1_r/activation	glut_min2_r/activation	glut_min3_r/activation	semimem_r/activation	semiten_r/activation	bifemlh_r/activation	bifemsh_r/activation	sar_r/activation	add_long_r/activation	add_brev_r/activation	add_mag1_r/activation	add_mag2_r/activation	add_mag3_r/activation	tfl_r/activation	pect_r/activation	grac_r/activation	glut_max1_r/activation	glut_max2_r/activation	glut_max3_r/activation	iliacus_r/activation	psoas_r/activation	quad_fem_r/activation	gem_r/activation	peri_r/activation	rect_fem_r/activation	vas_med_r/activation	vas_int_r/activation	vas_lat_r/activation	med_gas_r/activation	lat_gas_r/activation	soleus_r/activation	tib_post_r/activation	flex_dig_r/activation	flex_hal_r/activation	tib_ant_r/activation	per_brev_r/activation	per_long_r/activation	per_tert_r/activation	ext_dig_r/activation	ext_hal_r/activation	ercspn_r/activation	intobl_r/activation	extobl_r/activation	
          0.00000000	         -2.92764602	         -2.54515122	          6.17205840	          0.00000000	          0.91890233	         -0.00232409	        -15.96315413	         -1.61453997	          6.45419073	         28.62343001	          3.58603560	         -2.31741078	        -10.03173199	         -7.70723055	         -4.77593935	          5.68913795	          9.16841367	         -7.21114509	          9.84416156	         -0.43004725	          3.20356421	          1.25538119	         -1.90091180	          0.57064985	         -2.48818080	          5.82338671	        -13.45113209	         17.50953744	         -6.14909324	        -13.46506156	          6.58313104	         36.79196884	         16.04669612	         86.51662706	         86.51662706	          0.23889344	          0.10233990	          0.07444005	          0.24845191	          0.17954366	          0.11690121	          0.05000075	          0.05000011	          0.05000007	          0.05000031	          0.11755051	          0.05000009	          0.05000013	          0.05000013	          0.05000030	          0.05000018	          0.31421861	          0.05000066	          0.05000030	          0.05000112	          0.05000066	          0.05000035	          0.44598664	          0.64022379	          0.05000005	          0.05000026	          0.06066144	          0.32209187	          0.05000012	          0.05000012	          0.05000011	          0.27714924	          0.38335799	          0.37137806	          0.25942078	          0.21637011	          0.29440878	          0.05000001	          0.05980510	          0.14109058	          0.05000011	          0.05000003	          0.05000011	          0.05000000	          0.05000001	          0.05000017	          0.05980513	          0.05980513	          0.05000013	          0.05980516	          0.05980515	          0.05004123	          0.22019488	          0.10601947	          0.13906604	          0.09205642	          0.05000006	          0.14642659	          0.23330864	          0.27794738	          0.21946681	          0.11606955	          0.05000006	          0.05000104	          0.16053527	          0.05980083	          0.09602799	          0.14843318	          0.05000006	          0.05000004	          0.14408298	          0.25775318	          0.11854065	          0.05000005	          0.07861431	          0.07704555	          0.07154527	          0.06866820	          0.07106441	          0.06255097	          0.05000002	          0.05000016	          0.05000016	          0.42235810	          0.26173215	          0.17842414	          0.10343104	          0.47730873	          0.22689583	          0.05354617	          0.12547014	          0.10485276	
          0.01176618	         -2.93017650	         -2.61461070	          6.47271021	          0.01785210	          0.91793047	         -0.00213181	        -16.01544806	         -1.93937488	          6.26484716	         27.95304383	          3.96242491	         -2.06136164	        -11.64125821	         -8.22781158	         -5.19867235	          5.05045088	         10.12396075	         -7.53799778	          8.43832862	         -0.53411581	          5.19587865	          1.24198345	         -1.68727619	          0.73950692	         -2.56876675	          5.52647590	        -13.46042939	         17.81099427	         -7.12380855	        -13.45240131	          6.47781258	         38.03272438	         15.66962108	         86.51662706	         86.51662706	          0.19972652	          0.08556114	          0.06223554	          0.20771792	          0.15010724	          0.09773512	          0.05000176	          0.05000044	          0.05000046	          0.05000022	          0.09827815	          0.05981914	          0.05199978	          0.05980519	          0.05979632	          0.05980456	          0.26270205	          0.05980533	          0.05907467	          0.05000458	          0.05000227	          0.05000335	          0.37286647	          0.60847707	          0.05980222	          0.05936329	          0.05594054	          0.26928442	          0.10267742	          0.12621024	          0.14576113	          0.23171019	          0.32050587	          0.32815355	          0.21889648	          0.18089609	          0.24614024	          0.05000002	          0.05000014	          0.16078702	          0.05000008	          0.05000002	          0.05000011	          0.05087569	          0.06789969	          0.07153302	          0.05000000	          0.05000002	          0.08238344	          0.05000003	          0.05000003	          0.05000005	          0.18409360	          0.08863743	          0.11626595	          0.07696366	          0.05980913	          0.12241983	          0.29221046	          0.28182378	          0.18348579	          0.10026584	          0.05000016	          0.07156187	          0.13422209	          0.05000053	          0.10246901	          0.13712740	          0.05000054	          0.06958738	          0.52033655	          0.21549418	          0.09910583	          0.05980525	          0.06572553	          0.06441398	          0.05981546	          0.06913044	          0.07153306	          0.06241871	          0.05980514	          0.05018137	          0.05980496	          0.45133808	          0.27026157	          0.22347528	          0.08647351	          0.39905328	          0.18969593	          0.05000000	          0.10489912	          0.08766199	
          0.02353236	         -2.92813106	         -2.68474409	          6.73477488	          0.03605413	          0.91695410	         -0.00196767	        -16.04819430	         -2.26421896	          6.07186975	         27.18827629	          4.22662544	         -1.77814746	        -13.26877962	         -8.84744984	         -5.70504119	          4.44681465	         11.03103022	         -7.86689166	          6.73636312	         -0.71255048	          7.54013281	          1.30237731	         -1.45186358	          0.92046267	         -2.63513952	          5.13308862	        -13.46680921	         18.01804171	         -8.12904832	        -13.45095324	          6.42526650	         39.26035465	         15.35329216	         86.51662706	         86.51662706	          0.29976109	          0.07153335	          0.06481527	          0.28916107	          0.12549702	          0.08171137	          0.05000054	          0.05000007	          0.05000006	          0.05000013	          0.08216852	          0.05001173	          0.05000010	          0.05000018	          0.05000025	          0.05000017	          0.23923399	          0.05000078	          0.05000032	          0.05000956	          0.05000187	          0.05000044	          0.31173450	          0.59253117	          0.05000057	          0.05000288	          0.05007007	          0.22513484	          0.08584510	          0.10551874	          0.12186397	          0.19372093	          0.26795843	          0.27435226	          0.18300809	          0.15123795	          0.20578521	          0.05000002	          0.09402718	          0.16854592	          0.05000011	          0.05000019	          0.05000012	          0.05000002	          0.05676743	          0.05980508	          0.23314332	          0.22523526	          0.24425853	          0.32759065	          0.22974513	          0.19232603	          0.15391120	          0.07411018	          0.09720402	          0.07168585	          0.05000343	          0.10234892	          0.24430211	          0.23561837	          0.15340311	          0.11954072	          0.05000020	          0.05982939	          0.11221637	          0.05000029	          0.12050825	          0.11464540	          0.05000284	          0.05817846	          0.43502656	          0.18016361	          0.19167161	          0.05000010	          0.05494976	          0.05385324	          0.05000866	          0.05779641	          0.05980512	          0.05218507	          0.05000003	          0.05000014	          0.05000016	          0.51697218	          0.34913293	          0.18683623	          0.35115128	          0.50113418	          0.18759363	          0.05662706	          0.12649394	          0.07328967	
          0.03529854	         -2.92383153	         -2.75177006	          6.95358721	          0.05436822	          0.91606031	         -0.00177569	        -15.99980247	         -2.58039674	          5.89587489	         26.41522587	          4.45756480	         -1.49814217	        -14.99140260	         -9.44364352	         -6.30990846	          3.80906125	         11.88650920	         -8.18462364	          4.77664322	         -0.62729461	         10.16417056	          1.35056378	         -1.22025635	          1.10818960	         -2.69166130	          4.68374197	        -13.47754276	         18.15575746	         -9.11027692	        -13.45171256	          6.42302172	         40.44555778	         15.07103321	         86.51662706	         86.51662706	          0.25344259	          0.05980537	          0.05418875	          0.24175285	          0.10492162	          0.06831470	          0.05000078	          0.05000009	          0.05000009	          0.05000009	          0.06869702	          0.05525556	          0.05000058	          0.05000047	          0.05000080	          0.05000044	          0.20001127	          0.05750684	          0.05000059	          0.05000155	          0.05000087	          0.05000058	          0.26062516	          0.55391551	          0.05000022	          0.05000069	          0.05000014	          0.18822363	          0.12240879	          0.12240878	          0.12240879	          0.16196008	          0.22402623	          0.22937177	          0.15300364	          0.12644229	          0.17204643	          0.06847273	          0.07863098	          0.17829461	          0.05000032	          0.11244991	          0.05000078	          0.06518407	          0.05000000	          0.05000001	          0.33404481	          0.33784478	          0.35715050	          0.27388174	          0.21014004	          0.22938870	          0.12867725	          0.06196356	          0.08126741	          0.05993290	          0.05000044	          0.08556867	          0.20424841	          0.19698843	          0.12825255	          0.14939194	          0.05000023	          0.05002041	          0.09381841	          0.21057016	          0.18263973	          0.14392867	          0.05000002	          0.05000003	          0.36370328	          0.15062553	          0.16024688	          0.05000004	          0.07631487	          0.08154493	          0.06058020	          0.05000001	          0.05000004	          0.05000000	          0.05000010	          0.05000012	          0.05000014	          0.59440428	          0.35784209	          0.19813348	          0.44280411	          0.52819533	          0.29892314	          0.07738558	          0.10575506	          0.06127371	
